# xmcd CD database file
#
# Track frame offsets:
#	150
#	16565
#	38589
#	49251
#	59753
#	69393
#	86086
#	100253
#	117216
#	142378
#	154737
#	169343
#	181532
#	195782
#	216820
#
# Disc length: 3116 seconds
#
# Revision: 0
# Processed by: cddbd v1.5PL3 Copyright (c) Steve Scherf et al.
# Submitted via: CDex 1.51
#
DISCID=c80c2a0f
DTITLE=Sojiro - Heart Obtained  Vol 05
DYEAR=1991
DGENRE=New Age
TTITLE0=of KACHU-SHA
TTITLE1=of Gondola
TTITLE2=Bell of Clock Tower
TTITLE3=Harbor of G
TTITLE4=Mother
TTITLE5=Northing
TTITLE6=Path of Suzukake
TTITLE7=Smoke of Mountain
TTITLE8=V is Vine Song in Praise
TTITLE9=It is Light to Window of Heart
TTITLE10=I want to go to a distance
TTITLE11=Song of the four seasons
TTITLE12=Shiretoko
TTITLE13=Green Leaves
TTITLE14=Good-bye [ Day - Today's ]
EXTD=YEAR: 1991
EXTT0=
EXTT1=
EXTT2=
EXTT3=
EXTT4=
EXTT5=
EXTT6=
EXTT7=
EXTT8=
EXTT9=
EXTT10=
EXTT11=
EXTT12=
EXTT13=
EXTT14=
PLAYORDER=
